<svg width="381" height="91" viewBox="0 0 381 91" fill="none" xmlns="http://www.w3.org/2000/svg">
<g filter="url(#filter0_d_45_1089)">
<path d="M119.328 23.1523C122.687 23.1523 126.472 26.2324 126.472 30.8896C126.472 35.4727 123.002 40 117.064 40H105.876V10.0898H114.04C119.198 10.0898 122.687 13.8008 122.687 17.7715C122.687 21 120.441 23.1523 119.328 23.1523ZM114.318 14.6543H110.552V22.1133L114.263 22.0947C116.582 22.1133 118.289 20.5176 118.289 18.3838C118.289 16.25 116.434 14.6543 114.318 14.6543ZM116.638 35.417C119.328 35.417 121.889 33.4688 121.889 30.5742C121.889 28.3105 119.959 26.2324 116.563 26.2324L110.552 26.251V35.417H116.638ZM146.512 14.71H133.394V22.373H144.712V27.0488H133.394V35.3242H146.512V40H128.7V10.0898H146.512V14.71ZM157.368 40V27.2158L147.441 10.0898H152.73L159.688 22.002L166.664 10.0898H171.952L162.025 27.2158V40H157.368ZM184.422 40.4824C175.924 40.4824 168.985 33.543 168.985 25.082C168.985 16.5469 175.924 9.57031 184.441 9.57031C192.939 9.57031 199.916 16.5469 199.916 25.082C199.916 33.543 192.939 40.4824 184.422 40.4824ZM184.422 35.7324C190.323 35.7324 195.166 30.9268 195.166 25.0449C195.166 19.126 190.323 14.3018 184.422 14.3018C178.522 14.3018 173.716 19.126 173.716 25.0449C173.716 30.9268 178.522 35.7324 184.422 35.7324ZM222.034 10.0156H226.747V40.5195H226.524L207.395 20.5361V40.0371H202.7V9.57031H202.941L222.034 29.5166V10.0156ZM239.496 10.0898C248.996 10.0713 254.915 15.8232 254.915 25.082C254.915 34.2666 248.996 40 239.496 40H230.979V10.0898H239.496ZM239.533 35.3242C246.064 35.3242 250.165 31.3721 250.165 25.0635C250.165 18.7178 246.046 14.7471 239.477 14.7471H235.655V35.3242H239.533Z" fill="white"/>
</g>
<path d="M90.65 0H0V90.65H90.65V0Z" fill="#F3C202"/>
<g filter="url(#filter1_d_45_1089)">
<path d="M53.31 13.62C49.72 11.11 46.84 9.63001 45.54 9.01001V16.95C46.29 17.27 47.97 18.07 49.92 19.59L53.31 13.62Z" fill="white"/>
<path d="M54.1002 14.1899L50.6802 20.1999C52.0702 21.3799 53.3202 22.7099 54.3702 24.1799L59.3102 19.3599C57.8102 17.3799 56.0602 15.6299 54.0902 14.1799L54.1002 14.1899Z" fill="white"/>
<path d="M63.5499 27.48C62.6399 24.8 61.4099 22.33 59.8799 20.15L54.9199 24.98C56.0099 26.63 56.8699 28.45 57.4899 30.39L63.5499 27.47V27.48Z" fill="white"/>
<path d="M64.4098 37.94C64.3898 37.04 64.3998 36.1601 64.3998 35.3101C64.4098 32.8501 64.4198 30.51 63.8498 28.41L57.7798 31.3401C58.3598 33.4501 58.6798 35.66 58.7198 37.94H64.4198H64.4098Z" fill="white"/>
<path d="M40.2001 19.58C42.2001 18.03 43.9401 17.22 44.5801 16.94V9C43.2801 9.62 40.4001 11.09 36.8101 13.61L40.2001 19.58Z" fill="white"/>
<path d="M30.8101 19.3599L35.7501 24.1799C36.8101 22.7099 38.0501 21.3799 39.4401 20.1999L36.0201 14.1899C34.0601 15.6399 32.3001 17.3899 30.8101 19.3699V19.3599Z" fill="white"/>
<path d="M32.6201 30.4C33.2401 28.46 34.1001 26.64 35.1901 24.98L30.2301 20.16C28.7001 22.35 27.4701 24.81 26.5601 27.49L32.6201 30.41V30.4Z" fill="white"/>
<path d="M25.6602 37.94H31.3302C31.3702 35.79 31.7101 33.6201 32.3501 31.3401L26.2802 28.41C25.7002 30.55 25.6902 32.9401 25.6902 35.4601C25.6902 36.2201 25.6902 37.06 25.6702 37.94H25.6602Z" fill="white"/>
<path d="M31.3201 38.89H25.6401V45.24H31.3201V38.89Z" fill="white"/>
<path d="M64.42 38.89H58.71V45.24H64.42V38.89Z" fill="white"/>
<path d="M24.69 38.89H19V45.24H24.69V38.89Z" fill="white"/>
<path d="M31.3298 46.1899H19.0098V52.5299H31.3298V46.1899Z" fill="white"/>
<path d="M31.3201 53.49H25.6401V59.83H31.3201V53.49Z" fill="white"/>
<path d="M24.6898 53.49H19.0098V59.83H24.6898V53.49Z" fill="white"/>
<path d="M31.3298 60.79H19.0098V67.13H31.3298V60.79Z" fill="white"/>
<path d="M64.42 53.49H58.71V59.83H64.42V53.49Z" fill="white"/>
<path d="M71.0899 53.49H65.3799V59.83H71.0899V53.49Z" fill="white"/>
<path d="M71.03 60.79H58.71V67.13H71.03V60.79Z" fill="white"/>
<path d="M31.3499 68.08H25.6699V74.42H31.3499V68.08Z" fill="white"/>
<path d="M24.72 68.08H19.04V74.42H24.72V68.08Z" fill="white"/>
<path d="M31.35 75.38H19.04V81.73H31.35V75.38Z" fill="white"/>
<path d="M64.4502 68.08H58.7402V74.42H64.4502V68.08Z" fill="white"/>
<path d="M71.1201 68.08H65.4102V74.42H71.1201V68.08Z" fill="white"/>
<path d="M71.0602 75.38H58.7402V81.73H71.0602V75.38Z" fill="white"/>
<path d="M71.0899 38.89H65.3799V45.24H71.0899V38.89Z" fill="white"/>
<path d="M71.09 46.1899H58.71V52.5299H71.09V46.1899Z" fill="white"/>
</g>
<g filter="url(#filter2_d_45_1089)">
<path d="M124.616 52.0898V56.7471H116.601V82H111.888V56.7471H103.872V52.0898H124.616ZM144.471 52.0898H149.166V82H144.471V69.3643H131.52V82H126.844V52.0898H131.52V64.707H144.471V52.0898ZM171.229 56.71H158.11V64.373H169.429V69.0488H158.11V77.3242H171.229V82H153.416V52.0898H171.229V56.71ZM373.842 82.8535C372.116 82.8535 370.688 81.4434 370.688 79.7178C370.688 77.9922 372.116 76.5635 373.842 76.5635C375.549 76.5635 376.996 78.0107 376.996 79.7178C376.996 81.4434 375.568 82.8535 373.842 82.8535Z" fill="white"/>
<path d="M202.032 56.6914H188.914V64.6885H200.232V69.3643H188.914V82.0371H184.22V52.0156H202.032V56.6914ZM217.638 82.4824C209.14 82.4824 202.201 75.543 202.201 67.082C202.201 58.5469 209.14 51.5703 217.657 51.5703C226.155 51.5703 233.131 58.5469 233.131 67.082C233.131 75.543 226.155 82.4824 217.638 82.4824ZM217.638 77.7324C223.539 77.7324 228.381 72.9268 228.381 67.0449C228.381 61.126 223.539 56.3018 217.638 56.3018C211.738 56.3018 206.932 61.126 206.932 67.0449C206.932 72.9268 211.738 77.7324 217.638 77.7324ZM264.193 65.6719C264.268 66.3584 264.323 67.1748 264.323 68.0098C264.323 76.8975 257.866 82.501 250.092 82.501C241.39 82.501 234.487 75.5615 234.487 67.082C234.487 58.584 241.427 51.5889 249.925 51.5889C253.692 51.6074 257.996 53.4258 260.817 56.1719L258.2 60.0684C255.862 57.7676 252.708 56.3203 249.869 56.3203C244.414 56.3203 239.256 60.8848 239.256 67.082C239.256 72.9453 243.913 77.7695 250.296 77.7695C255.436 77.7695 259.295 74.6338 259.295 70.0693V69.9766H250.036V65.6719H264.193ZM305.017 65.6719C305.091 66.3584 305.147 67.1748 305.147 68.0098C305.147 76.8975 298.69 82.501 290.915 82.501C282.213 82.501 275.311 75.5615 275.311 67.082C275.311 58.584 282.25 51.5889 290.748 51.5889C294.515 51.6074 298.819 53.4258 301.64 56.1719L299.024 60.0684C296.686 57.7676 293.531 56.3203 290.693 56.3203C285.237 56.3203 280.079 60.8848 280.079 67.082C280.079 72.9453 284.736 77.7695 291.119 77.7695C296.259 77.7695 300.118 74.6338 300.118 70.0693V69.9766H290.86V65.6719H305.017ZM326.078 82L324.037 77.4541H309.88L307.839 82H302.755L316.819 51.4775H317.097L331.162 82H326.078ZM311.698 73.4277H322.218L316.967 61.7383L311.698 73.4277ZM347.992 52.0898V56.7471H339.977V82H335.264V56.7471H327.248V52.0898H347.992ZM368.033 56.71H354.915V64.373H366.233V69.0488H354.915V77.3242H368.033V82H350.22V52.0898H368.033V56.71Z" fill="#F3C202"/>
</g>
<defs>
<filter id="filter0_d_45_1089" x="101.876" y="9.57031" width="157.039" height="38.9492" filterUnits="userSpaceOnUse" color-interpolation-filters="sRGB">
<feFlood flood-opacity="0" result="BackgroundImageFix"/>
<feColorMatrix in="SourceAlpha" type="matrix" values="0 0 0 0 0 0 0 0 0 0 0 0 0 0 0 0 0 0 127 0" result="hardAlpha"/>
<feOffset dy="4"/>
<feGaussianBlur stdDeviation="2"/>
<feComposite in2="hardAlpha" operator="out"/>
<feColorMatrix type="matrix" values="0 0 0 0 0 0 0 0 0 0 0 0 0 0 0 0 0 0 0.1 0"/>
<feBlend mode="normal" in2="BackgroundImageFix" result="effect1_dropShadow_45_1089"/>
<feBlend mode="normal" in="SourceGraphic" in2="effect1_dropShadow_45_1089" result="shape"/>
</filter>
<filter id="filter1_d_45_1089" x="15" y="9" width="60.1201" height="80.73" filterUnits="userSpaceOnUse" color-interpolation-filters="sRGB">
<feFlood flood-opacity="0" result="BackgroundImageFix"/>
<feColorMatrix in="SourceAlpha" type="matrix" values="0 0 0 0 0 0 0 0 0 0 0 0 0 0 0 0 0 0 127 0" result="hardAlpha"/>
<feOffset dy="4"/>
<feGaussianBlur stdDeviation="2"/>
<feComposite in2="hardAlpha" operator="out"/>
<feColorMatrix type="matrix" values="0 0 0 0 0 0 0 0 0 0 0 0 0 0 0 0 0 0 0.1 0"/>
<feBlend mode="normal" in2="BackgroundImageFix" result="effect1_dropShadow_45_1089"/>
<feBlend mode="normal" in="SourceGraphic" in2="effect1_dropShadow_45_1089" result="shape"/>
</filter>
<filter id="filter2_d_45_1089" x="99.8721" y="51.4775" width="281.124" height="39.376" filterUnits="userSpaceOnUse" color-interpolation-filters="sRGB">
<feFlood flood-opacity="0" result="BackgroundImageFix"/>
<feColorMatrix in="SourceAlpha" type="matrix" values="0 0 0 0 0 0 0 0 0 0 0 0 0 0 0 0 0 0 127 0" result="hardAlpha"/>
<feOffset dy="4"/>
<feGaussianBlur stdDeviation="2"/>
<feComposite in2="hardAlpha" operator="out"/>
<feColorMatrix type="matrix" values="0 0 0 0 0 0 0 0 0 0 0 0 0 0 0 0 0 0 0.1 0"/>
<feBlend mode="normal" in2="BackgroundImageFix" result="effect1_dropShadow_45_1089"/>
<feBlend mode="normal" in="SourceGraphic" in2="effect1_dropShadow_45_1089" result="shape"/>
</filter>
</defs>
</svg>
