<svg width="200" height="200" viewBox="0 0 200 200" fill="none" xmlns="http://www.w3.org/2000/svg">
<g clip-path="url(#clip0_46_1238)">
<g filter="url(#filter0_d_46_1238)">
<path d="M120.892 19.7011C111.8 13.3443 104.506 9.59598 101.214 8.02576V28.1347C103.113 28.9452 107.368 30.9713 112.307 34.8208L120.892 19.7011Z" fill="#F3C202"/>
<path d="M122.895 21.1435L114.234 36.3645C117.754 39.353 120.92 42.7214 123.579 46.4444L136.09 34.2371C132.291 29.2226 127.859 24.7905 122.87 21.1182L122.895 21.1435Z" fill="#F3C202"/>
<path d="M146.828 54.8026C144.523 48.0152 141.408 41.7596 137.533 36.2385L124.972 48.4711C127.732 52.6499 129.91 57.2593 131.48 62.1725L146.828 54.7773V54.8026Z" fill="#F3C202"/>
<path d="M149.006 81.2938C148.955 79.0144 148.98 76.7858 148.98 74.6331C149.006 68.4028 149.031 62.4765 147.587 57.158L132.214 64.5786C133.683 69.9224 134.494 75.5194 134.595 81.2938H149.031H149.006Z" fill="#F3C202"/>
<path d="M87.6915 34.7951C92.7568 30.8695 97.1635 28.8181 98.7844 28.109V8C95.492 9.57022 88.198 13.2932 79.106 19.6754L87.6915 34.7951Z" fill="#F3C202"/>
<path d="M63.9097 34.2377L76.4208 46.4449C79.1054 42.7219 82.2458 39.3535 85.7662 36.3651L77.1046 21.144C72.1406 24.8163 67.6833 29.2484 63.9097 34.263V34.2377Z" fill="#F3C202"/>
<path d="M68.4941 62.1983C70.0644 57.285 72.2424 52.6756 75.003 48.4715L62.4412 36.2643C58.5663 41.8107 55.4512 48.0409 53.1465 54.8284L68.4941 62.2236V62.1983Z" fill="#F3C202"/>
<path d="M50.8672 81.2938H65.2271C65.3284 75.8487 66.1895 70.3529 67.8104 64.5786L52.4374 57.158C50.9685 62.5778 50.9432 68.6308 50.9432 75.0129C50.9432 76.9377 50.9432 79.0651 50.8925 81.2938H50.8672Z" fill="#F3C202"/>
<path d="M65.2016 83.7002H50.8164V99.7823H65.2016V83.7002Z" fill="#F3C202"/>
<path d="M149.032 83.7002H134.57V99.7823H149.032V83.7002Z" fill="#F3C202"/>
<path d="M48.4106 83.7002H34V99.7823H48.4106V83.7002Z" fill="#F3C202"/>
<path d="M65.2282 102.188H34.0264V118.244H65.2282V102.188Z" fill="#F3C202"/>
<path d="M65.2016 120.677H50.8164V136.734H65.2016V120.677Z" fill="#F3C202"/>
<path d="M48.4116 120.677H34.0264V136.734H48.4116V120.677Z" fill="#F3C202"/>
<path d="M65.2282 139.165H34.0264V155.222H65.2282V139.165Z" fill="#F3C202"/>
<path d="M149.032 120.677H134.57V136.734H149.032V120.677Z" fill="#F3C202"/>
<path d="M165.924 120.677H151.462V136.734H165.924V120.677Z" fill="#F3C202"/>
<path d="M165.772 139.165H134.57V155.222H165.772V139.165Z" fill="#F3C202"/>
<path d="M65.2773 157.627H50.8921V173.684H65.2773V157.627Z" fill="#F3C202"/>
<path d="M48.4864 157.627H34.1011V173.684H48.4864V157.627Z" fill="#F3C202"/>
<path d="M65.2776 176.115H34.1011V192.197H65.2776V176.115Z" fill="#F3C202"/>
<path d="M149.109 157.627H134.647V173.684H149.109V157.627Z" fill="#F3C202"/>
<path d="M166 157.627H151.539V173.684H166V157.627Z" fill="#F3C202"/>
<path d="M165.849 176.115H134.647V192.197H165.849V176.115Z" fill="#F3C202"/>
<path d="M165.924 83.7002H151.462V99.7823H165.924V83.7002Z" fill="#F3C202"/>
<path d="M165.924 102.188H134.57V118.244H165.924V102.188Z" fill="#F3C202"/>
</g>
<g filter="url(#filter1_d_46_1238)">
<path d="M81.3125 181.359C83.4336 181.359 85.8242 183.305 85.8242 186.246C85.8242 189.141 83.6328 192 79.8828 192H72.8164V173.109H77.9727C81.2305 173.109 83.4336 175.453 83.4336 177.961C83.4336 180 82.0156 181.359 81.3125 181.359ZM78.1484 175.992H75.7695V180.703L78.1133 180.691C79.5781 180.703 80.6562 179.695 80.6562 178.348C80.6562 177 79.4844 175.992 78.1484 175.992ZM79.6133 189.105C81.3125 189.105 82.9297 187.875 82.9297 186.047C82.9297 184.617 81.7109 183.305 79.5664 183.305L75.7695 183.316V189.105H79.6133ZM103.761 176.016H95.4762V181.066H102.625V184.02H95.4762V192.023H92.5114V173.062H103.761V176.016ZM127.91 181.688C127.956 182.121 127.992 182.637 127.992 183.164C127.992 188.777 123.913 192.316 119.003 192.316C113.507 192.316 109.148 187.934 109.148 182.578C109.148 177.211 113.531 172.793 118.898 172.793C121.277 172.805 123.995 173.953 125.777 175.688L124.124 178.148C122.648 176.695 120.656 175.781 118.863 175.781C115.417 175.781 112.16 178.664 112.16 182.578C112.16 186.281 115.101 189.328 119.132 189.328C122.378 189.328 124.816 187.348 124.816 184.465V184.406H118.968V181.688H127.91Z" fill="#F3C202"/>
</g>
</g>
<defs>
<filter id="filter0_d_46_1238" x="30" y="8" width="140" height="192.197" filterUnits="userSpaceOnUse" color-interpolation-filters="sRGB">
<feFlood flood-opacity="0" result="BackgroundImageFix"/>
<feColorMatrix in="SourceAlpha" type="matrix" values="0 0 0 0 0 0 0 0 0 0 0 0 0 0 0 0 0 0 127 0" result="hardAlpha"/>
<feOffset dy="4"/>
<feGaussianBlur stdDeviation="2"/>
<feComposite in2="hardAlpha" operator="out"/>
<feColorMatrix type="matrix" values="0 0 0 0 0 0 0 0 0 0 0 0 0 0 0 0 0 0 0.1 0"/>
<feBlend mode="normal" in2="BackgroundImageFix" result="effect1_dropShadow_46_1238"/>
<feBlend mode="normal" in="SourceGraphic" in2="effect1_dropShadow_46_1238" result="shape"/>
</filter>
<filter id="filter1_d_46_1238" x="68.8164" y="172.793" width="63.1753" height="27.5234" filterUnits="userSpaceOnUse" color-interpolation-filters="sRGB">
<feFlood flood-opacity="0" result="BackgroundImageFix"/>
<feColorMatrix in="SourceAlpha" type="matrix" values="0 0 0 0 0 0 0 0 0 0 0 0 0 0 0 0 0 0 127 0" result="hardAlpha"/>
<feOffset dy="4"/>
<feGaussianBlur stdDeviation="2"/>
<feComposite in2="hardAlpha" operator="out"/>
<feColorMatrix type="matrix" values="0 0 0 0 0 0 0 0 0 0 0 0 0 0 0 0 0 0 0.1 0"/>
<feBlend mode="normal" in2="BackgroundImageFix" result="effect1_dropShadow_46_1238"/>
<feBlend mode="normal" in="SourceGraphic" in2="effect1_dropShadow_46_1238" result="shape"/>
</filter>
<clipPath id="clip0_46_1238">
<rect width="200" height="200" fill="white"/>
</clipPath>
</defs>
</svg>
